<?xml version="1.0" encoding="UTF-8" standalone="no" ?>
<!DOCTYPE svg PUBLIC "-//W3C//DTD SVG 1.1//EN" "http://www.w3.org/Graphics/SVG/1.1/DTD/svg11.dtd">
<svg xmlns="http://www.w3.org/2000/svg" xmlns:xlink="http://www.w3.org/1999/xlink" version="1.1" width="1200" height="628" viewBox="0 0 1200 628" xml:space="preserve">
<desc>Created with Fabric.js 5.2.4</desc>
<defs>
</defs>
<rect x="0" y="0" width="100%" height="100%" fill="transparent"></rect>
<g transform="matrix(1 0 0 1 600 314)" id="2627b949-8c04-4d01-82d5-17a89f51bd0a"  >
<rect style="stroke: none; stroke-width: 1; stroke-dasharray: none; stroke-linecap: butt; stroke-dashoffset: 0; stroke-linejoin: miter; stroke-miterlimit: 4; fill: rgb(255,255,255); fill-rule: nonzero; opacity: 1; visibility: hidden;" vector-effect="non-scaling-stroke"  x="-600" y="-314" rx="0" ry="0" width="1200" height="628" />
</g>
<g transform="matrix(Infinity NaN NaN Infinity 0 0)" id="9b4a7578-59a1-4ac6-94e6-c1afde7ccad3"  >
</g>
<g transform="matrix(2.93 0 0 2.41 600 314)"  >
<g style=""   >
		<g transform="matrix(1.99 0 0 1.99 -153.37 0)" id="SvgjsG1623"  >
<path style="stroke: none; stroke-width: 1; stroke-dasharray: none; stroke-linecap: butt; stroke-dashoffset: 0; stroke-linejoin: miter; stroke-miterlimit: 4; fill: rgb(8,129,121); fill-rule: nonzero; opacity: 1;" vector-effect="non-scaling-stroke"  transform=" translate(-49.61, -50.44)" d="M 50.467 8.649 L 49.900999999999996 7.959 C 49.885 7.936999999999999 49.87 7.915 49.849 7.896999999999999 L 49.607 7.601999999999999 L 49.366 7.895999999999999 C 49.344 7.915999999999999 49.328 7.938999999999999 49.311 7.962999999999999 L 48.748 8.649999999999999 C 30.64 30.283 24.062 47.821 28.544 62.312 C 32.167 73.938 44.559 76.038 48.464 76.321 L 48.464 92.142 C 48.464 92.80799999999999 48.942 93.285 49.607 93.285 C 50.272999999999996 93.285 50.748 92.80799999999999 50.748 92.142 L 50.748 76.32 C 54.656 75.93799999999999 67.04599999999999 73.937 70.67 62.31099999999999 C 75.153 47.821 68.575 30.288 50.467 8.649 z M 49.607 37.127 C 50.464999999999996 37.127 51.162 37.824000000000005 51.162 38.682 C 51.162 39.538000000000004 50.464999999999996 40.236000000000004 49.607 40.236000000000004 C 48.75 40.236000000000004 48.052 39.539 48.052 38.682 C 48.052 37.824 48.75 37.127 49.607 37.127 z M 49.607 60.908 C 50.531 60.908 51.281 61.659 51.281 62.583 C 51.281 63.379999999999995 50.721 64.04599999999999 49.973 64.214 C 49.855 64.24 49.733 64.257 49.607 64.257 C 49.481 64.257 49.358 64.24000000000001 49.24 64.214 C 48.493 64.04599999999999 47.932 63.379999999999995 47.932 62.583 C 47.933 61.659 48.684 60.908 49.607 60.908 z M 69.163 58.463 L 65.437 58.463 L 61.053 54.078 C 60.985 54.010000000000005 60.888999999999996 53.971000000000004 60.791999999999994 53.971000000000004 L 59.50599999999999 53.971000000000004 C 59.331999999999994 53.027 58.50699999999999 52.306000000000004 57.51199999999999 52.306000000000004 C 56.392999999999994 52.306000000000004 55.480999999999995 53.218 55.480999999999995 54.337 C 55.480999999999995 55.457 56.392999999999994 56.369 57.51199999999999 56.369 C 58.50599999999999 56.369 59.331999999999994 55.649 59.50599999999999 54.704 L 60.64099999999999 54.704 L 65.026 59.089 C 65.094 59.157 65.189 59.196 65.286 59.196 L 69.021 59.196 C 68.844 60.022 68.632 60.838 68.381 61.641 C 65.278 71.791 54.683 73.69 50.911 74.018 C 50.86 74.023 50.809000000000005 74.026 50.758 74.031 L 50.747 74.033 C 50.491 74.055 50.232 74.06400000000001 49.972 74.069 L 49.972 71.092 L 53.374 67.689 L 55.402 67.689 C 55.576 68.63399999999999 56.403 69.354 57.396 69.354 C 58.518 69.354 59.427 68.443 59.427 67.322 C 59.427 66.202 58.518 65.291 57.396 65.291 C 56.402 65.291 55.576 66.011 55.402 66.956 L 53.222 66.956 C 53.125 66.956 53.032000000000004 66.994 52.962 67.063 L 49.971000000000004 70.054 L 49.971000000000004 64.732 C 51.002 64.556 51.792 63.664 51.792 62.583 C 51.792 61.376999999999995 50.81 60.394999999999996 49.604 60.394999999999996 C 48.397999999999996 60.394999999999996 47.417 61.376999999999995 47.417 62.583 C 47.417 63.663 48.206 64.557 49.237 64.732 L 49.237 70.94 L 49.237 71.443 L 45.839 67.194 L 45.839 64.406 C 45.839 64.384 45.83 64.36200000000001 45.824999999999996 64.34 C 46.474999999999994 63.483000000000004 46.41799999999999 62.259 45.63699999999999 61.478 C 45.730999999999995 61.571000000000005 45.82399999999999 61.665 45.86399999999999 61.704 C 45.83899999999999 61.68 45.77699999999999 61.617 45.63699999999999 61.477000000000004 C 45.48299999999999 61.324000000000005 45.41499999999999 61.254000000000005 45.39699999999999 61.23800000000001 C 45.42399999999999 61.26400000000001 45.529999999999994 61.37100000000001 45.63599999999999 61.476000000000006 C 44.78299999999999 60.62400000000001 43.39599999999999 60.62400000000001 42.54399999999999 61.477000000000004 C 41.69099999999999 62.331 41.69099999999999 63.718 42.54399999999999 64.572 C 43.23699999999999 65.265 44.27999999999999 65.384 45.10599999999999 64.95100000000001 L 45.10599999999999 67.32300000000001 C 45.10599999999999 67.406 45.133999999999986 67.48700000000001 45.18699999999999 67.552 L 49.23899999999999 72.61800000000001 L 49.23899999999999 74.05100000000002 C 48.67899999999999 74.02400000000002 48.12499999999999 73.96500000000002 47.58799999999999 73.85400000000001 C 43.328999999999986 73.34900000000002 33.771999999999984 71.10500000000002 30.851999999999986 61.55300000000001 C 30.744999999999987 61.21400000000001 30.648999999999987 60.872000000000014 30.555999999999987 60.53100000000001 L 33.225999999999985 57.86100000000001 L 39.972999999999985 57.86100000000001 C 40.069999999999986 57.86100000000001 40.16399999999999 57.82100000000001 40.231999999999985 57.75400000000001 L 40.847999999999985 57.13900000000001 C 41.637999999999984 57.68400000000001 42.73099999999999 57.60900000000001 43.43399999999998 56.90600000000001 C 44.225999999999985 56.11400000000001 44.225999999999985 54.82500000000001 43.43399999999998 54.033000000000015 C 42.64199999999998 53.24100000000002 41.35299999999998 53.241000000000014 40.56199999999998 54.033000000000015 C 39.85799999999998 54.73600000000002 39.78299999999998 55.829000000000015 40.328999999999986 56.62000000000002 L 39.820999999999984 57.12800000000002 L 33.073999999999984 57.12800000000002 C 32.97699999999998 57.12800000000002 32.88299999999998 57.16800000000002 32.81499999999998 57.23500000000002 L 30.346999999999984 59.70400000000002 C 28.762999999999984 53.10000000000002 29.595999999999982 45.75100000000002 32.911999999999985 37.55700000000002 C 32.93799999999999 37.563000000000024 32.96199999999998 37.57300000000002 32.98999999999999 37.57300000000002 L 35.27199999999999 37.57300000000002 L 40.32899999999999 42.630000000000024 C 39.782999999999994 43.42100000000002 39.858999999999995 44.514000000000024 40.56199999999999 45.21700000000003 C 41.35299999999999 46.008000000000024 42.64199999999999 46.008000000000024 43.43399999999999 45.21700000000003 C 44.22599999999999 44.425000000000026 44.22599999999999 43.135000000000026 43.43399999999999 42.34400000000003 C 42.73099999999999 41.64100000000003 41.63699999999999 41.56600000000003 40.84699999999999 42.11100000000003 L 35.682999999999986 36.94600000000003 C 35.61499999999999 36.878000000000036 35.51999999999999 36.839000000000034 35.423999999999985 36.839000000000034 L 33.213999999999984 36.839000000000034 C 36.417999999999985 29.205000000000034 41.74599999999998 20.844000000000037 49.23999999999998 11.679000000000034 L 49.23999999999998 15.322000000000035 L 45.21499999999998 19.347000000000037 C 45.146999999999984 19.41500000000004 45.10799999999998 19.510000000000037 45.10799999999998 19.606000000000037 L 45.10799999999998 31.6 C 44.16299999999998 31.774 43.442999999999984 32.6 43.442999999999984 33.594 C 43.442999999999984 34.714 44.35499999999998 35.626000000000005 45.47399999999998 35.626000000000005 C 46.594999999999985 35.626000000000005 47.50499999999998 34.714000000000006 47.50499999999998 33.59400000000001 C 47.50499999999998 32.60000000000001 46.78699999999998 31.774000000000008 45.84099999999998 31.60000000000001 L 45.84099999999998 19.757 L 49.23899999999998 16.358 L 49.23899999999998 21.517 L 49.23899999999998 36.687 C 48.29399999999998 36.86 47.573999999999984 37.687 47.573999999999984 38.681999999999995 C 47.573999999999984 39.80199999999999 48.48599999999998 40.712999999999994 49.60599999999998 40.712999999999994 C 50.72599999999998 40.712999999999994 51.63699999999998 39.800999999999995 51.63699999999998 38.681999999999995 C 51.63699999999998 37.687 50.91699999999998 36.861 49.97199999999998 36.687 L 49.97199999999998 22.402 L 53.30699999999998 25.737000000000002 L 53.30699999999998 33.315000000000005 C 52.36199999999998 33.489000000000004 51.64299999999998 34.315000000000005 51.64299999999998 35.309000000000005 C 51.64299999999998 36.429 52.55399999999998 37.34 53.67399999999998 37.34 C 54.793999999999976 37.34 55.70499999999998 36.428000000000004 55.70499999999998 35.309000000000005 C 55.70499999999998 34.31400000000001 54.98499999999998 33.48800000000001 54.03999999999998 33.315000000000005 L 54.03999999999998 25.586000000000006 C 54.03999999999998 25.489000000000004 54.000999999999976 25.396000000000004 53.93299999999998 25.327000000000005 L 49.97199999999998 21.366000000000007 L 49.97199999999998 15.475000000000007 C 49.97199999999998 15.474000000000007 49.97199999999998 15.473000000000006 49.97199999999998 15.472000000000007 L 49.97199999999998 11.678000000000006 C 55.27399999999998 18.161000000000005 59.49099999999998 24.241000000000007 62.63999999999998 29.950000000000003 C 62.610999999999976 29.967000000000002 62.57499999999998 29.963000000000005 62.54899999999998 29.988000000000003 L 60.53399999999998 32.003 C 60.46699999999998 32.071 60.427999999999976 32.166 60.427999999999976 32.262 L 60.427999999999976 40.562 L 58.38999999999998 42.599 C 57.59999999999998 42.053 56.50699999999998 42.128 55.80399999999998 42.83 C 56.00099999999998 42.632 56.19699999999998 42.436 55.80199999999998 42.830999999999996 C 55.80099999999998 42.830999999999996 55.80099999999998 42.831999999999994 55.799999999999976 42.833 C 55.010999999999974 43.625 55.01199999999998 44.912 55.80199999999998 45.704 C 56.59399999999998 46.496 57.88299999999998 46.496 58.674999999999976 45.704 C 59.37799999999998 45 59.452999999999975 43.908 58.90799999999997 43.117 L 61.052999999999976 40.971999999999994 C 61.120999999999974 40.90299999999999 61.159999999999975 40.809 61.159999999999975 40.712999999999994 L 61.159999999999975 32.41199999999999 L 62.98799999999998 30.584999999999994 C 68.661 41.08 70.686 50.308 69.163 58.463 z M 59.067 54.337 C 59.067 54.464000000000006 59.047 54.586000000000006 59.018 54.704 C 58.853 55.384 58.244 55.892 57.512 55.892 C 56.655 55.892 55.957 55.195 55.957 54.337 C 55.957 53.481 56.654 52.782000000000004 57.512 52.782000000000004 C 58.243 52.782000000000004 58.853 53.291000000000004 59.019 53.970000000000006 C 59.048 54.089 59.067 54.21 59.067 54.337 z M 55.844 67.322 C 55.844 67.19500000000001 55.864000000000004 67.074 55.893 66.956 C 56.059 66.276 56.669000000000004 65.768 57.399 65.768 C 58.257 65.768 58.955 66.466 58.955 67.32300000000001 C 58.955 68.18100000000001 58.257999999999996 68.87800000000001 57.399 68.87800000000001 C 56.67 68.87800000000001 56.059 68.37100000000001 55.893 67.69000000000001 C 55.863 67.571 55.844 67.449 55.844 67.322 z M 42.91 64.208 C 42.25599999999999 63.555 42.25599999999999 62.492 42.91 61.839999999999996 C 43.562999999999995 61.187999999999995 44.623999999999995 61.187999999999995 45.276999999999994 61.839999999999996 C 45.839999999999996 62.403 45.91499999999999 63.270999999999994 45.50599999999999 63.918 C 45.440999999999995 64.021 45.36699999999999 64.118 45.276999999999994 64.208 C 45.187999999999995 64.297 45.08899999999999 64.372 44.986999999999995 64.437 C 44.34 64.846 43.474 64.771 42.91 64.208 z M 40.9 54.369 C 41.504999999999995 53.763 42.492 53.763 43.098 54.369 C 43.705 54.974 43.705 55.961 43.098 56.567 C 42.582 57.084 41.791 57.156 41.193 56.793 C 41.089 56.73 40.989999999999995 56.657 40.9 56.567 C 40.81 56.477000000000004 40.738 56.378 40.674 56.273 C 40.311 55.676 40.383 54.885 40.9 54.369 z M 41.193 42.454 C 41.791 42.09 42.582 42.162 43.098 42.679 C 43.705 43.285000000000004 43.705 44.271 43.098 44.877 C 42.493 45.484 41.506 45.484 40.9 44.877 C 40.382999999999996 44.361000000000004 40.311 43.57 40.675 42.972 C 40.738 42.868 40.809999999999995 42.768 40.9 42.679 C 40.99 42.589 41.089 42.517 41.193 42.454 z M 45.475 32.04 C 46.333 32.04 47.03 32.738 47.03 33.595 C 47.03 34.452999999999996 46.333 35.15 45.475 35.15 C 44.619 35.15 43.922000000000004 34.452999999999996 43.922000000000004 33.595 C 43.921 32.737 44.618 32.04 45.475 32.04 z M 53.676 33.754 C 54.533 33.754 55.231 34.451 55.231 35.309 C 55.231 36.166 54.534 36.864 53.676 36.864 C 52.82 36.864 52.121 36.166 52.121 35.309 C 52.121 34.451 52.819 33.754 53.676 33.754 z M 58.34 45.367 C 57.734 45.973 56.748000000000005 45.973 56.142 45.367 C 55.536 44.760999999999996 55.536 43.774 56.142 43.168 C 56.659000000000006 42.650999999999996 57.45 42.579 58.047000000000004 42.943 C 58.151 43.006 58.25000000000001 43.079 58.34 43.168 C 58.43000000000001 43.258 58.502 43.357 58.566 43.461 C 58.93 44.06 58.857 44.851 58.34 45.367 z" stroke-linecap="round" />
</g>
		<g transform="matrix(1.99 0 0 1.99 -165.65 -16.13)" id="SvgjsG1623"  >
<path style="stroke: none; stroke-width: 1; stroke-dasharray: none; stroke-linecap: butt; stroke-dashoffset: 0; stroke-linejoin: miter; stroke-miterlimit: 4; fill: rgb(8,129,121); fill-rule: nonzero; opacity: 1;" vector-effect="non-scaling-stroke"  transform=" translate(-43.44, -42.34)" d="M 43.435 42.342 C 44.227 43.133 42.643 41.55 43.435 42.342 L 43.435 42.342 z" stroke-linecap="round" />
</g>
		<g transform="matrix(1.99 0 0 1.99 -171.37 7.14)" id="SvgjsG1623"  >
<path style="stroke: none; stroke-width: 1; stroke-dasharray: none; stroke-linecap: butt; stroke-dashoffset: 0; stroke-linejoin: miter; stroke-miterlimit: 4; fill: rgb(8,129,121); fill-rule: nonzero; opacity: 1;" vector-effect="non-scaling-stroke"  transform=" translate(-40.56, -54.03)" d="M 40.563 54.031 C 41.354 53.239 39.771 54.823 40.563 54.031 L 40.563 54.031 z" stroke-linecap="round" />
</g>
		<g transform="matrix(1.99 0 0 1.99 -153.36 -10.91)" id="SvgjsG1623"  >
<path style="stroke: none; stroke-width: 1; stroke-dasharray: none; stroke-linecap: butt; stroke-dashoffset: 0; stroke-linejoin: miter; stroke-miterlimit: 4; fill: rgb(8,129,121); fill-rule: nonzero; opacity: 1;" vector-effect="non-scaling-stroke"  transform=" translate(-49.61, -44.96)" d="M 66.147 49.979 C 65.524 49.979 65.028 50.432 64.91000000000001 51.021 L 52.714 51.021 L 52.714 50.524 L 51.387 50.524 L 51.387 49.563 L 52.714 49.563 L 52.714 49.314 L 56.614 49.314 C 56.678 49.314 56.742 49.289 56.788 49.243 L 60.404999999999994 45.626000000000005 L 64.234 45.626000000000005 C 64.351 46.215 64.847 46.668000000000006 65.472 46.668000000000006 C 66.18199999999999 46.668000000000006 66.758 46.092000000000006 66.758 45.38100000000001 C 66.758 44.669000000000004 66.182 44.09300000000001 65.472 44.09300000000001 C 64.847 44.09300000000001 64.351 44.546000000000014 64.234 45.13500000000001 L 60.30199999999999 45.13500000000001 C 60.23799999999999 45.13500000000001 60.17499999999999 45.161000000000016 60.129999999999995 45.207000000000015 L 56.513 48.82400000000001 L 52.713 48.82400000000001 L 52.713 48.280000000000015 L 51.386 48.280000000000015 L 51.386 47.32 L 52.713 47.32 L 52.713 46.04 L 51.386 46.04 L 51.386 45.08 L 52.713 45.08 L 52.713 44.678999999999995 C 52.775 44.678999999999995 52.838 44.654999999999994 52.885 44.608 L 56.741 40.753 C 56.787 40.708 56.812 40.645 56.812 40.581 L 56.812 30.356 L 57.544 29.624000000000002 C 58.044999999999995 29.957 58.717 29.928 59.157 29.486 C 59.66 28.983 59.66 28.168 59.157 27.665 C 58.654999999999994 27.162 57.839999999999996 27.162 57.336999999999996 27.665 C 56.895999999999994 28.105999999999998 56.864999999999995 28.777 57.19799999999999 29.277 L 56.392999999999994 30.082 C 56.346999999999994 30.128 56.321999999999996 30.191000000000003 56.321999999999996 30.255 L 56.321999999999996 40.477 L 52.711999999999996 44.087999999999994 L 52.711999999999996 43.797999999999995 L 51.385 43.797999999999995 L 51.385 42.98799999999999 L 47.826 42.98799999999999 L 47.826 43.797999999999995 L 46.5 43.797999999999995 L 46.5 44.087999999999994 L 42.582 40.169 L 42.582 32.702999999999996 C 42.582 32.638999999999996 42.555 32.57599999999999 42.509 32.531 L 40.927 30.948999999999998 C 41.262 30.448999999999998 41.232 29.778 40.789 29.336 C 40.287 28.834 39.472 28.834 38.97 29.336 C 38.467 29.839 38.467 30.654 38.969 31.157 C 39.411 31.599 40.083 31.629 40.583 31.295 L 42.092 32.806000000000004 L 42.092 40.271 C 42.092 40.335 42.119 40.399 42.165 40.444 L 46.329 44.608000000000004 C 46.376 44.655 46.439 44.679 46.501 44.679 L 46.501 45.080000000000005 L 47.829 45.080000000000005 L 47.829 46.041000000000004 L 46.5 46.041000000000004 L 46.5 47.321000000000005 L 47.828 47.321000000000005 L 47.828 48.282000000000004 L 46.5 48.282000000000004 L 46.5 48.606 L 42.876 48.606 L 37.007 42.736000000000004 C 36.961999999999996 42.691 36.897999999999996 42.664 36.833999999999996 42.664 L 35.61 42.664 C 35.492 42.075 34.995 41.622 34.372 41.622 C 33.661 41.622 33.084 42.199 33.084 42.909 C 33.084 43.62 33.660000000000004 44.196999999999996 34.372 44.196999999999996 C 34.996 44.196999999999996 35.492 43.74399999999999 35.61 43.154999999999994 L 36.734 43.154999999999994 L 42.603 49.023999999999994 C 42.649 49.068999999999996 42.712 49.096 42.776 49.096 L 46.5 49.096 L 46.5 49.565 L 47.828 49.565 L 47.828 50.525999999999996 L 46.5 50.525999999999996 L 46.5 51.022999999999996 L 34.313 51.022999999999996 C 34.195 50.434 33.699000000000005 49.980999999999995 33.075 49.980999999999995 C 32.365 49.980999999999995 31.787000000000003 50.55799999999999 31.787000000000003 51.267999999999994 C 31.787000000000003 51.97899999999999 32.364000000000004 52.55499999999999 33.075 52.55499999999999 C 33.7 52.55499999999999 34.195 52.10199999999999 34.313 51.51299999999999 L 46.5 51.51299999999999 L 46.5 51.80699999999999 L 47.828 51.80699999999999 L 47.828 52.76799999999999 L 46.5 52.76799999999999 L 46.5 54.04799999999999 L 47.828 54.04799999999999 L 47.828 55.008999999999986 L 46.5 55.008999999999986 L 46.5 55.261999999999986 C 46.438 55.261999999999986 46.375 55.28499999999999 46.328 55.33199999999999 L 40.55200000000001 61.106999999999985 L 36.77100000000001 61.106999999999985 C 36.653000000000006 60.51799999999999 36.156000000000006 60.06499999999998 35.53300000000001 60.06499999999998 C 34.821000000000005 60.06499999999998 34.24500000000001 60.640999999999984 34.24500000000001 61.35199999999998 C 34.24500000000001 62.06299999999998 34.82100000000001 62.63899999999998 35.53300000000001 62.63899999999998 C 36.15700000000001 62.63899999999998 36.65400000000001 62.18599999999998 36.77100000000001 61.59599999999998 L 40.653000000000006 61.59599999999998 C 40.71600000000001 61.59599999999998 40.779 61.570999999999984 40.825 61.524999999999984 L 46.499 55.84999999999999 L 46.499 56.28899999999999 L 47.827000000000005 56.28899999999999 L 47.827000000000005 57.896999999999984 L 51.386 57.896999999999984 L 51.386 56.28899999999999 L 52.713 56.28899999999999 L 52.713 55.84999999999999 L 55.789 58.926999999999985 L 60.759 58.926999999999985 L 62.202 60.368999999999986 C 61.867999999999995 60.86999999999998 61.897999999999996 61.54099999999998 62.339999999999996 61.981999999999985 C 62.842999999999996 62.484999999999985 63.657 62.484999999999985 64.161 61.981999999999985 C 64.663 61.478999999999985 64.663 60.664999999999985 64.161 60.16099999999999 C 63.719 59.72099999999999 63.048 59.68999999999999 62.547000000000004 60.02299999999999 L 60.961000000000006 58.43699999999999 L 55.992000000000004 58.43699999999999 L 52.885000000000005 55.33099999999999 C 52.83800000000001 55.28399999999999 52.776 55.25999999999999 52.71300000000001 55.25999999999999 L 52.71300000000001 55.00799999999999 L 51.38600000000001 55.00799999999999 L 51.38600000000001 54.04699999999999 L 52.71300000000001 54.04699999999999 L 52.71300000000001 52.76699999999999 L 51.38600000000001 52.76699999999999 L 51.38600000000001 51.80599999999999 L 52.71300000000001 51.80599999999999 L 52.71300000000001 51.51199999999999 L 64.91 51.51199999999999 C 65.02799999999999 52.10099999999999 65.524 52.553999999999995 66.14699999999999 52.553999999999995 C 66.85799999999999 52.553999999999995 67.43499999999999 51.977999999999994 67.43499999999999 51.266999999999996 C 67.436 50.555 66.858 49.979 66.147 49.979 z" stroke-linecap="round" />
</g>
		<g transform="matrix(0.93 0 0 0.93 55.17 0.62)" id="SvgjsG1624"  >
<path style="stroke: none; stroke-width: 1; stroke-dasharray: none; stroke-linecap: butt; stroke-dashoffset: 0; stroke-linejoin: miter; stroke-miterlimit: 4; fill: rgb(8,129,121); fill-rule: nonzero; opacity: 1;" vector-effect="non-scaling-stroke"  transform=" translate(-160.16, -20)" d="M 34.609 25 C 34.24439 24.01039 33.723690000000005 23.1512 33.046600000000005 22.422 C 32.577850000000005 21.90114 31.822600000000005 21.3022 30.781000000000006 20.625 C 29.635100000000005 20.05211 28.619500000000006 19.6094 27.734100000000005 19.2969 C 28.359100000000005 18.932290000000002 29.036200000000004 18.51565 29.765400000000007 18.0469 C 30.494540000000008 17.4219 31.041400000000007 16.8229 31.406000000000006 16.25 C 31.874750000000006 15.625 32.26538000000001 14.8698 32.57790000000001 13.9844 C 32.89040000000001 13.0469 33.04665000000001 12.031300000000002 33.04665000000001 10.9375 C 33.04665000000001 8.020900000000001 31.952850000000005 5.7031 29.765350000000005 3.9844 C 27.577850000000005 2.2657 24.609050000000003 1.4062999999999999 20.859050000000003 1.4062999999999999 L 6.406050000000004 1.4062999999999999 L 6.406050000000004 7.1876 L 20.078050000000005 7.1876 C 22.057150000000004 7.1876 23.671850000000006 7.60424 24.921850000000006 8.4376 C 26.015650000000008 9.27096 26.562450000000005 10.4689 26.562450000000005 12.0314 C 26.562450000000005 13.802299999999999 25.937450000000005 15.078299999999999 24.687450000000005 15.8595 C 23.385350000000006 16.69286 21.692650000000004 17.1095 19.609250000000007 17.1095 L 6.406250000000007 17.1095 L 6.406250000000007 22.5783 L 21.01525000000001 22.5783 C 23.51525000000001 22.5783 25.41625000000001 23.02103 26.718350000000008 23.906399999999998 C 27.968350000000008 24.843899999999998 28.593350000000008 26.093899999999998 28.593350000000008 27.656399999999998 C 28.593350000000008 29.322999999999997 27.968350000000008 30.599099999999996 26.718350000000008 31.484399999999997 C 25.41625000000001 32.369789999999995 23.671450000000007 32.8125 21.483950000000007 32.8125 L 6.405950000000008 32.8125 L 6.405950000000008 38.5938 L 21.405950000000008 38.5938 C 23.437250000000006 38.5938 25.312250000000006 38.35942 27.030950000000008 37.89067 C 28.80185000000001 37.36981 30.234050000000007 36.71877 31.32785000000001 35.93757 C 32.421650000000014 35.15637 33.35915000000001 34.088570000000004 34.14035000000001 32.73447 C 34.76535000000001 31.48447 35.07785000000001 30.02607 35.07785000000001 28.35947 C 35.07785000000001 27.057370000000002 34.92160000000001 25.93757 34.60910000000001 25.00007 z M 63.281 16.875 L 63.281 1.3279999999999994 L 56.7185 1.3279999999999994 L 56.7185 38.672 L 63.281 38.672 L 63.281 16.874999999999996 z M 116.64099999999999 38.5156 L 103.907 22.2656 L 99.45389999999999 27.1094 L 108.7508 38.5154 L 116.6414 38.5154 z M 107.969 1.4059999999999988 L 90.23499999999999 19.765 L 90.23499999999999 1.4059999999999988 L 83.82869999999998 1.4059999999999988 L 83.82869999999998 38.515 L 90.23499999999999 38.515 L 90.23499999999999 29.765 L 116.56299999999999 1.4059999999999988 L 107.96919999999999 1.4059999999999988 z M 155.781 38.5937 L 145.703 24.530699999999996 C 147.0571 24.114059999999995 148.255 23.619289999999996 149.29670000000002 23.046399999999995 C 150.44260000000003 22.317259999999994 151.38010000000003 21.509999999999994 152.10920000000002 20.624599999999994 C 152.94256000000001 19.634989999999995 153.5415 18.567299999999992 153.9062 17.421399999999995 C 154.37495 16.171399999999995 154.60933 14.765099999999995 154.60933 13.202599999999995 C 154.60933 11.379699999999994 154.29683 9.739099999999995 153.67183 8.280699999999996 C 153.04683 6.874399999999996 152.13533 5.650499999999996 150.93743 4.608799999999996 C 149.79153 3.619189999999996 148.33323000000001 2.837899999999996 146.56233 2.264999999999996 C 144.73943 1.692109999999996 142.81233 1.405619999999996 140.78103000000002 1.405619999999996 L 124.21803000000001 1.405619999999996 L 124.21803000000001 7.343119999999996 L 140.23403000000002 7.343119999999996 C 142.68193000000002 7.343119999999996 144.58293000000003 7.863979999999996 145.93703000000002 8.905619999999995 C 147.29113 9.947259999999995 147.96833 11.509719999999994 147.96833 13.593119999999995 C 147.96833 15.520219999999995 147.29122 17.030619999999995 145.93703000000002 18.124419999999994 C 144.58293000000003 19.270319999999995 142.70793000000003 19.843219999999995 140.31203000000002 19.843219999999995 L 124.21803000000003 19.843219999999995 L 124.21803000000003 38.593219999999995 L 130.70243000000002 38.593219999999995 L 130.70243000000002 25.624219999999994 L 138.90553000000003 25.624219999999994 L 148.04613000000003 38.593219999999995 L 155.78053000000003 38.593219999999995 L 155.78053000000003 38.593219999999995 z M 166.0938 1.4059999999999988 L 193.90679999999998 1.4059999999999988 L 193.90679999999998 7.343499999999999 L 166.0938 7.343499999999999 L 166.0938 1.4059999999999988 z M 166.0938 32.6562 L 193.8278 32.6562 L 193.8278 38.5937 L 166.0938 38.5937 L 166.0938 32.6562 z M 166.0938 16.875 L 191.1718 16.875 L 191.1718 22.7344 L 166.0938 22.7344 L 166.0938 16.875 z M 203.8281 38.5937 L 210.3125 38.5937 L 210.3125 18.671699999999998 L 203.8281 9.531099999999999 L 203.8281 38.5941 z M 229.766 1.4059999999999988 L 229.766 27.108999999999998 L 211.40699999999998 1.4059999999999988 L 204.3757 1.4059999999999988 L 230.7817 38.594 L 236.1723 38.594 L 236.1723 1.4059999999999988 L 229.76600000000002 1.4059999999999988 z M 263.281 7.5 L 275.07800000000003 7.5 L 275.07800000000003 1.4062000000000001 L 244.92200000000003 1.4062000000000001 L 244.92200000000003 7.5 L 263.281 7.5 z M 256.719 13.594000000000001 L 263.2815 13.594000000000001 L 263.2815 38.594 L 256.719 38.594 L 256.719 13.594000000000001 z M 286.0938 1.4059999999999988 L 313.9068 1.4059999999999988 L 313.9068 7.343499999999999 L 286.0938 7.343499999999999 L 286.0938 1.4059999999999988 z M 286.0938 32.6562 L 313.82779999999997 32.6562 L 313.82779999999997 38.5937 L 286.0938 38.5937 L 286.0938 32.6562 z M 286.0938 16.875 L 311.17179999999996 16.875 L 311.17179999999996 22.7344 L 286.0938 22.7344 L 286.0938 16.875 z" stroke-linecap="round" />
</g>
</g>
</g>
<g transform="matrix(NaN NaN NaN NaN 0 0)"  >
<g style=""   >
</g>
</g>
<g transform="matrix(NaN NaN NaN NaN 0 0)"  >
<g style=""   >
</g>
</g>
</svg>